<?xml version="1.0" standalone="no"?><!DOCTYPE svg PUBLIC "-//W3C//DTD SVG 1.1//EN" "http://www.w3.org/Graphics/SVG/1.1/DTD/svg11.dtd"><svg id="Untitled-Page%201" viewBox="0 0 702 702" style="background-color:#ffffff00" version="1.1"	xmlns="http://www.w3.org/2000/svg" xmlns:xlink="http://www.w3.org/1999/xlink" xml:space="preserve"	x="0px" y="0px" width="702px" height="702px">	<defs>		<linearGradient id="gradient1" x1="50%" y1="0%" x2="50%" y2="100%">			<stop stop-color="#f0f0f0" stop-opacity="1" offset="0%"/>			<stop stop-color="#ffffff" stop-opacity="1" offset="100%"/>		</linearGradient>		<linearGradient id="gradient2" x1="50%" y1="0%" x2="50%" y2="100%">			<stop stop-color="#f0f0f0" stop-opacity="1" offset="0%"/>			<stop stop-color="#ffffff" stop-opacity="1" offset="100%"/>		</linearGradient>	</defs>	<g id="mainLayer">		<g>			<path id="Ellipse" d="M 1 351 C 1 157.6979 157.6979 1 351 1 C 544.3021 1 701 157.6979 701 351 C 701 544.3021 544.3021 701 351 701 C 157.6979 701 1 544.3021 1 351 Z" fill="url(#gradient1)"/>			<path id="Ellipse2" d="M 11 351 C 11 163.2208 163.2208 11 351 11 C 538.7793 11 691 163.2208 691 351 C 691 538.7792 538.7793 691 351 691 C 163.2208 691 11 538.7792 11 351 Z" fill="url(#gradient2)"/>			<path d="M 265.2858 350 C 265.2858 302.6608 303.6605 264.2858 351 264.2858 C 398.3392 264.2858 436.7142 302.6608 436.7142 350 C 436.7142 366.2559 432.1902 381.455 424.3315 394.4056 C 422.1603 392.1997 419.4602 390.5157 416.4384 389.5585 C 416.9211 387.7001 417.1788 385.7383 417.1788 383.7203 C 417.1788 370.9919 406.8719 360.6619 394.156 360.6619 C 384.5947 360.6619 376.4019 366.5052 372.9146 374.8124 C 369.9334 371.2922 365.4811 369.0583 360.5035 369.0583 C 351.5043 369.0583 344.2113 376.3611 344.2113 385.377 C 344.2113 386.9257 344.4316 388.4229 344.83 389.8495 C 337.4807 392.5435 332.2407 399.6119 332.2407 407.9143 C 332.2407 414.6067 335.657 420.5068 340.8428 423.9515 C 338.6542 425.673 337.2857 428.1288 337.2857 430.8571 C 337.2857 432.2567 337.6451 433.5861 338.2912 434.7801 C 296.9788 428.6403 265.2858 393.0214 265.2858 350 ZM 251 350 C 251 405.2291 295.7709 450 351 450 C 406.2291 450 451 405.2291 451 350 C 451 294.7709 406.2291 250 351 250 C 295.7709 250 251 294.7709 251 350 ZM 350.8856 316.4882 C 353.9415 316.4882 356.4164 314.0098 356.4164 310.9452 L 356.4164 302.9669 C 356.4164 299.9113 353.9415 297.4285 350.8856 297.4285 C 347.839 297.4285 345.3642 299.9113 345.3642 302.9669 L 345.3642 310.9452 C 345.3642 314.0098 347.839 316.4882 350.8856 316.4882 ZM 378.4359 327.9162 C 379.8516 327.9162 381.2715 327.372 382.3447 326.2927 L 387.9879 320.6466 C 390.1441 318.4875 390.1441 314.9819 387.9879 312.8225 C 385.8322 310.6545 382.3262 310.6545 380.17 312.8225 L 374.5268 318.4641 C 372.371 320.6228 372.371 324.1336 374.5268 326.2927 C 375.6049 327.372 377.025 327.9162 378.4359 327.9162 ZM 319.4358 326.2927 C 320.5139 327.372 321.9293 327.9162 323.3446 327.9162 C 324.76 327.9162 326.1757 327.372 327.2538 326.2927 C 329.4144 324.1336 329.4144 320.6228 327.2538 318.4641 L 321.6199 312.8225 C 319.4637 310.6545 315.9581 310.6545 313.7926 312.8225 C 311.6458 314.9819 311.6458 318.4875 313.7926 320.6466 L 319.4358 326.2927 ZM 384.3229 349.9608 C 384.3229 351.6836 385.101 353.223 386.3287 354.2365 C 388.8459 353.5654 391.4705 353.2089 394.156 353.2089 C 396.6777 353.2089 399.1339 353.5233 401.4774 354.1099 C 402.6258 353.0961 403.3521 351.6177 403.3521 349.9656 C 403.3521 346.9058 400.8728 344.4278 397.8214 344.4278 L 389.8537 344.4278 C 386.7977 344.4278 384.3229 346.9058 384.3229 349.9608 ZM 343.3019 369.0205 C 335.7371 365.9983 330.4032 358.6111 330.4032 349.9656 C 330.4032 338.6266 339.571 329.437 350.895 329.437 C 362.2096 329.437 371.3867 338.6266 371.3867 349.9656 C 371.3867 354.7013 369.7744 359.0615 367.084 362.5344 C 368.3963 362.9099 369.6713 363.4027 370.8945 363.9989 C 372.9238 361.6005 375.3048 359.5401 377.939 357.8787 C 378.6749 355.3679 379.0826 352.7068 379.0826 349.9656 C 379.0826 334.3978 366.4371 321.7352 350.895 321.7352 C 335.3528 321.7352 322.7073 334.3978 322.7073 349.9656 C 322.7073 361.2388 329.3441 370.9826 338.915 375.5021 C 340.0166 373.1041 341.5023 370.9167 343.3019 369.0205 ZM 319.4358 373.6341 L 313.7926 379.2802 C 311.6368 381.4392 311.6368 384.9404 313.7926 387.1088 C 314.8707 388.1881 316.2906 388.7233 317.7015 388.7233 C 319.1217 388.7233 320.5374 388.1881 321.6199 387.1088 L 327.2538 381.4581 C 329.4144 379.2991 329.4144 375.798 327.2538 373.6341 C 325.0977 371.4706 321.5917 371.4706 319.4358 373.6341 ZM 317.4625 349.9656 C 317.4625 346.9058 314.9832 344.4278 311.9272 344.4278 L 303.9592 344.4278 C 300.9081 344.4278 298.4285 346.9058 298.4285 349.9608 C 298.4285 353.0164 300.9081 355.4944 303.9592 355.4944 L 311.9272 355.4944 C 314.9832 355.4944 317.4625 353.0258 317.4625 349.9656 Z" fill="#cccccc"/>		</g>	</g></svg>